<?xml version="1.0" encoding="utf-8"?>
<!-- Generator: Adobe Illustrator 27.2.0, SVG Export Plug-In . SVG Version: 6.00 Build 0)  -->
<svg version="1.1" id="Layer_1" xmlns="http://www.w3.org/2000/svg" xmlns:xlink="http://www.w3.org/1999/xlink" x="0px" y="0px"
	 viewBox="0 0 24 24" style="enable-background:new 0 0 24 24;" xml:space="preserve">
<style type="text/css">
	.st0{fill:#FFFFFF;}
</style>
<path class="st0" d="M12,5c-4.1,0-7.7,3.1-9.9,6.5C2,11.6,2,11.8,2,12s0,0.4,0.1,0.5C4.3,15.9,7.9,19,12,19c4.1,0,7.8-3.1,9.9-6.5
	C22,12.4,22,12.2,22,12s0-0.4-0.1-0.5C19.8,8.1,16.1,5,12,5z M20.4,12c-1.8,2.9-4.9,5.5-8.4,5.5c-3.5,0-6.5-2.6-8.4-5.5
	C5.5,9.1,8.5,6.5,12,6.5C15.5,6.5,18.6,9.1,20.4,12z M12,8c2.2,0,4,1.8,4,4s-1.8,4-4,4s-4-1.8-4-4S9.8,8,12,8z M12,9.5
	c-1.4,0-2.5,1.1-2.5,2.5s1.1,2.5,2.5,2.5s2.5-1.1,2.5-2.5S13.4,9.5,12,9.5z"/>
</svg>
