<?xml version="1.0" encoding="utf-8"?>
<!-- Generator: Adobe Illustrator 27.2.0, SVG Export Plug-In . SVG Version: 6.00 Build 0)  -->
<svg version="1.1" id="Layer_1" xmlns="http://www.w3.org/2000/svg" xmlns:xlink="http://www.w3.org/1999/xlink" x="0px" y="0px"
	 viewBox="0 0 24 24" style="enable-background:new 0 0 24 24;" xml:space="preserve">
<style type="text/css">
	.st0{fill:#FFFFFF;}
</style>
<path class="st0" d="M7.2,3C4.6,3,2,4.8,2,8.2c0,3.7,4.3,7.7,9.3,12.5c0.2,0.2,0.4,0.3,0.7,0.3s0.5-0.1,0.7-0.3
	c5-4.8,9.3-8.8,9.3-12.5C22,4.8,19.4,3,16.8,3c-1.8,0-3.6,0.9-4.8,2.6C10.9,3.9,9.1,3,7.2,3z M7.2,4.5c2,0,3.2,1.4,4.2,2.7
	c0.1,0.2,0.4,0.3,0.6,0.3c0.2,0,0.5-0.1,0.6-0.3c1-1.3,2.2-2.7,4.2-2.7c1.8,0,3.7,1.1,3.7,3.7c0,2.7-2.9,5.7-8.5,11.1
	C6.5,14,3.5,10.9,3.5,8.2c0-1.1,0.4-2.1,1.1-2.7C5.3,4.8,6.2,4.5,7.2,4.5z"/>
</svg>
