<?xml version="1.0" encoding="utf-8"?>
<!-- Generator: Adobe Illustrator 27.2.0, SVG Export Plug-In . SVG Version: 6.00 Build 0)  -->
<svg version="1.1" id="Layer_1" xmlns="http://www.w3.org/2000/svg" xmlns:xlink="http://www.w3.org/1999/xlink" x="0px" y="0px"
	 viewBox="0 0 24 24" style="enable-background:new 0 0 24 24;" xml:space="preserve">
<style type="text/css">
	.st0{fill:#FFFFFF;}
</style>
<path class="st0" d="M4.5,15.7C3.1,19.6,3,19.9,3,20.2C3,20.8,3.5,21,3.8,21c0.4,0,0.7-0.1,4.6-1.5L4.5,15.7z M5.5,14.6l3.8,3.8
	L20.7,7.1C20.9,6.9,21,6.7,21,6.4c0-0.3-0.1-0.5-0.3-0.7C20,5,19,4,18.3,3.3C18.1,3.1,17.8,3,17.6,3c-0.3,0-0.5,0.1-0.7,0.3
	L5.5,14.6z"/>
</svg>
