<?xml version="1.0" encoding="utf-8"?>
<!-- Generator: Adobe Illustrator 27.2.0, SVG Export Plug-In . SVG Version: 6.00 Build 0)  -->
<svg version="1.1" id="Layer_1" xmlns="http://www.w3.org/2000/svg" xmlns:xlink="http://www.w3.org/1999/xlink" x="0px" y="0px"
	 viewBox="0 0 24 24" style="enable-background:new 0 0 24 24;" xml:space="preserve">
<style type="text/css">
	.st0{fill:#FFFFFF;}
</style>
<path class="st0" d="M21.3,4C21.7,4,22,4.3,22,4.7c0,0.2-0.1,0.5-0.5,0.7c-1.8,0.9-3.9,4.2-3.9,6.2c3-0.1,4.3,2.6,4.3,4.3
	c0,2-1.7,4.1-4.3,4.1c-3.2,0-4.8-2.5-4.8-5.3C12.8,8.7,19.7,4,21.3,4z M10.5,4c0.4,0,0.7,0.3,0.7,0.7c0,0.2-0.1,0.5-0.5,0.7
	c-1.8,0.9-3.9,4.2-3.9,6.2c3-0.1,4.3,2.6,4.3,4.3c0,2-1.7,4.1-4.3,4.1C3.6,20,2,17.5,2,14.7C2,8.7,8.8,4,10.5,4z"/>
</svg>
