<?xml version="1.0" encoding="utf-8"?>
<!-- Generator: Adobe Illustrator 27.2.0, SVG Export Plug-In . SVG Version: 6.00 Build 0)  -->
<svg version="1.1" id="Layer_1" xmlns="http://www.w3.org/2000/svg" xmlns:xlink="http://www.w3.org/1999/xlink" x="0px" y="0px"
	 viewBox="0 0 24 24" style="enable-background:new 0 0 24 24;" xml:space="preserve">
<style type="text/css">
	.st0{fill:#FFFFFF;}
</style>
<path class="st0" d="M21.9,13.4L21.9,13.4L21.9,13.4c0-0.2,0.1-0.4,0.1-0.6c0-0.3-0.2-0.8-0.7-0.8c-0.4,0-0.7,0.3-0.7,0.7
	c0,0.2,0,0.4-0.1,0.7c-0.6,4.1-4.2,7.2-8.4,7.2c-3,0-5.7-1.6-7.2-4l2,0c0.4,0,0.8-0.3,0.8-0.8S7.2,15,6.8,15h-4
	C2.3,15,2,15.3,2,15.8v4c0,0.4,0.3,0.8,0.8,0.8s0.8-0.3,0.8-0.8l0-2.5C5.3,20.1,8.4,22,12,22C17,22,21.2,18.3,21.9,13.4z M2.1,10.4
	L2.1,10.4L2.1,10.4c0,0.3-0.1,0.5-0.1,0.8C2,11.5,2.2,12,2.8,12c0.4,0,0.7-0.3,0.7-0.7c0-0.3,0.1-0.6,0.1-0.8c0.7-4,4.2-7,8.4-7
	c3,0,5.7,1.6,7.2,4l-2,0c-0.4,0-0.8,0.3-0.8,0.8S16.8,9,17.2,9h4C21.7,9,22,8.7,22,8.3v-4c0-0.4-0.3-0.8-0.8-0.8s-0.8,0.3-0.8,0.8
	l0,2.5C18.7,3.9,15.6,2,12,2C7,2,2.9,5.7,2.1,10.4z"/>
</svg>
